<?xml version="1.0" encoding="iso-8859-1"?>
<!-- Uploaded to: SVG Repo, www.svgrepo.com, Generator: SVG Repo Mixer Tools -->
<svg height="800px" width="800px" version="1.1" id="Layer_1" xmlns="http://www.w3.org/2000/svg" xmlns:xlink="http://www.w3.org/1999/xlink" 
	 viewBox="0 0 511.999 511.999" xml:space="preserve">
<path style="fill:#FED9A8;" d="M204.539,376.597c-0.251-0.251-0.514-0.487-0.769-0.733l172.467-172.466
	c0.248,0.255,0.482,0.517,0.733,0.769c28.947,28.947,75.882,28.947,104.83,0c28.948-28.947,28.948-75.882,0-104.83
	c-13.307-13.307-30.417-20.48-47.833-21.552c-1.072-17.415-8.244-34.525-21.552-47.833c-28.947-28.947-75.882-28.947-104.83,0
	c-28.948,28.947-28.948,75.882,0,104.83c0.251,0.251,0.514,0.487,0.769,0.733L135.888,307.98c-0.248-0.255-0.482-0.517-0.733-0.769
	c-28.947-28.947-75.882-28.947-104.83,0s-28.949,75.882,0,104.83c13.308,13.308,30.417,20.48,47.833,21.552
	c1.072,17.415,8.245,34.525,21.552,47.833c28.947,28.947,75.882,28.947,104.83,0S233.488,405.545,204.539,376.597z"/>
<path style="fill:#EDC391;" d="M481.802,99.335c-3.134-3.133-6.484-5.915-9.994-8.368c20.25,28.913,17.483,69.04-8.34,94.863
	c-28.947,28.949-75.882,28.949-104.83,0c-0.251-0.251-0.487-0.514-0.733-0.769L185.437,357.53c0.255,0.248,0.517,0.482,0.769,0.733
	c28.949,28.947,28.947,75.882,0,104.83c-25.824,25.824-65.95,28.589-94.863,8.34c2.454,3.51,5.235,6.861,8.368,9.994
	c28.948,28.947,75.882,28.947,104.83,0c28.947-28.947,28.949-75.882,0-104.83c-0.251-0.251-0.514-0.487-0.769-0.733l172.466-172.466
	c0.248,0.255,0.482,0.517,0.733,0.769c28.949,28.949,75.882,28.947,104.83,0C510.749,175.217,510.749,128.283,481.802,99.335z"/>
<path d="M152.125,511.957c-21.166,0-42.332-8.057-58.445-24.17c-12.54-12.54-20.654-28.703-23.27-46.115
	c-17.412-2.617-33.575-10.731-46.115-23.27c-28.579-28.579-32.39-73.223-9.062-106.156c2.723-3.842,8.045-4.751,11.888-2.03
	c3.843,2.723,4.751,8.044,2.029,11.888c-18.509,26.128-15.479,61.555,7.204,84.238c11.315,11.314,26.346,18.087,42.327,19.07
	c4.297,0.264,7.722,3.691,7.987,7.987c0.983,15.981,7.756,31.013,19.07,42.327c25.579,25.577,67.194,25.577,92.77,0
	c25.576-25.577,25.576-67.193,0-92.77l-0.682-0.648c-1.637-1.591-2.568-3.771-2.584-6.054c-0.016-2.282,0.883-4.477,2.498-6.091
	L328.495,239.41c3.33-3.33,8.73-3.33,12.059,0c3.33,3.33,3.33,8.73,0,12.059L215.611,376.411
	c27.088,32.439,25.407,80.926-5.042,111.375C194.457,503.899,173.291,511.957,152.125,511.957z"/>
<path d="M135.888,316.837c-0.02,0-0.041,0-0.061,0c-2.283-0.017-4.464-0.947-6.054-2.584l-0.654-0.688
	c-21.813-21.812-56.372-25.431-82.168-8.601c-3.944,2.574-9.228,1.463-11.801-2.482c-2.574-3.944-1.462-9.228,2.482-11.801
	c30.413-19.842,70.484-17.138,98.033,5.794l160.847-160.848c-12.407-14.827-19.164-33.36-19.164-52.933
	c0-22.077,8.598-42.833,24.208-58.444C317.167,8.64,337.924,0.042,360,0.042c22.077,0,42.833,8.598,58.444,24.208
	c12.54,12.54,20.654,28.703,23.27,46.115c17.412,2.617,33.575,10.731,46.115,23.27c32.226,32.226,32.226,84.663,0,116.889
	c-30.448,30.447-78.936,32.13-111.375,5.042l-16.095,16.095c-3.33,3.33-8.73,3.33-12.059,0c-3.33-3.33-3.33-8.73,0-12.059
	l21.906-21.906c1.613-1.615,3.794-2.488,6.091-2.498c2.282,0.017,4.464,0.947,6.054,2.584l0.648,0.682
	c25.577,25.576,67.194,25.576,92.77,0c25.576-25.577,25.576-67.194,0-92.77c-11.314-11.314-26.346-18.087-42.327-19.07
	c-4.297-0.264-7.722-3.691-7.987-7.987c-0.983-15.981-7.756-31.012-19.07-42.327c-25.576-25.576-67.194-25.576-92.77,0
	c-12.39,12.39-19.213,28.863-19.214,46.385c0,17.522,6.823,33.994,19.214,46.385l0.681,0.648c1.637,1.591,2.568,3.771,2.584,6.054
	c0.016,2.282-0.883,4.477-2.498,6.091L141.917,314.339C140.319,315.94,138.148,316.837,135.888,316.837z"/>
</svg>