<svg width="1312" height="460" viewBox="0 0 1312 460" fill="none" xmlns="http://www.w3.org/2000/svg">
<rect y="317.798" width="24.7547" height="102.149" rx="7.22268" fill="#D9D9D9"/>
<rect x="49.5098" y="185.726" width="24.7547" height="169.217" rx="7.22268" fill="#D9D9D9"/>
<rect x="99.0195" y="119.69" width="24.7547" height="127.945" rx="7.22268" fill="#D9D9D9"/>
<rect x="148.527" width="24.7547" height="231.126" rx="7.22268" fill="#2BCFB2"/>
<rect x="198.037" y="78.4176" width="24.7547" height="169.217" rx="7.22268" fill="#D9D9D9"/>
<rect x="247.547" y="163.026" width="24.7547" height="125.881" rx="7.22268" fill="#D9D9D9"/>
<rect x="297.057" y="199.139" width="24.7547" height="169.217" rx="7.22268" fill="#D9D9D9"/>
<rect x="346.564" y="317.798" width="24.7547" height="135.167" rx="7.22268" fill="#D9D9D9"/>
<rect x="396.074" y="33.0179" width="24.7547" height="383.834" rx="7.22268" fill="#2BCFB2"/>
<rect x="445.584" y="61.9086" width="24.7547" height="169.217" rx="7.22268" fill="#D9D9D9"/>
<rect x="495.094" y="185.726" width="24.7547" height="103.181" rx="7.22268" fill="#D9D9D9"/>
<rect x="544.605" y="237.316" width="24.7547" height="169.217" rx="7.22268" fill="#D9D9D9"/>
<rect x="594.113" y="264.144" width="24.7547" height="90.7993" rx="7.22268" fill="#D9D9D9"/>
<rect x="643.623" y="148.581" width="24.7547" height="169.217" rx="7.22268" fill="#D9D9D9"/>
<rect x="693.133" y="99.0538" width="24.7547" height="132.072" rx="7.22268" fill="#D9D9D9"/>
<rect x="742.643" width="24.7547" height="231.126" rx="7.22268" fill="#2BCFB2"/>
<rect x="792.15" y="61.9086" width="24.7547" height="57.7814" rx="7.22268" fill="#D9D9D9"/>
<rect x="841.66" y="119.69" width="24.7547" height="169.217" rx="7.22268" fill="#D9D9D9"/>
<rect x="891.17" y="183.662" width="24.7547" height="169.217" rx="7.22268" fill="#D9D9D9"/>
<rect x="940.68" y="283.748" width="24.7547" height="169.217" rx="7.22268" fill="#D9D9D9"/>
<rect x="990.189" y="283.748" width="24.7547" height="122.785" rx="7.22268" fill="#D9D9D9"/>
<rect x="1039.7" y="175.408" width="24.7547" height="169.217" rx="7.22268" fill="#D9D9D9"/>
<rect x="1089.21" width="24.7547" height="283.748" rx="7.22268" fill="#2BCFB2"/>
<rect x="1138.72" y="61.9086" width="24.7547" height="169.217" rx="7.22268" fill="#D9D9D9"/>
<rect x="1188.23" y="119.69" width="24.7547" height="169.217" rx="7.22268" fill="#D9D9D9"/>
<rect x="1237.74" y="165.09" width="24.7547" height="169.217" rx="7.22268" fill="#D9D9D9"/>
<rect x="1287.24" y="78.4176" width="24.7547" height="169.217" rx="7.22268" fill="#D9D9D9"/>
<path d="M160.907 274.368C154.071 274.368 148.529 268.824 148.529 261.986V251.856C148.529 245.017 154.071 239.474 160.907 239.474C167.742 239.474 173.284 245.017 173.284 251.856V261.986C173.284 268.824 167.742 274.368 160.907 274.368Z" fill="#2BCFB2"/>
<path d="M161.406 258.204L159.403 257.799C157.085 257.326 154.88 256.02 154.88 253.274C154.88 250.19 158.075 248.749 160.843 248.749C163.859 248.749 166.402 250.122 167.055 253.409H164.579C164.039 251.495 162.284 250.888 160.731 250.888C159.538 250.888 157.49 251.45 157.49 253.161C157.49 254.512 158.548 255.21 159.966 255.503L161.901 255.908C164.512 256.448 167.37 257.416 167.37 260.725C167.37 263.967 164.242 265.656 161.091 265.656C157.333 265.656 154.745 263.562 154.385 260.14H156.905C157.378 262.391 158.863 263.517 161.181 263.517C163.319 263.517 164.782 262.526 164.782 260.928C164.782 259.24 163.139 258.564 161.406 258.204Z" fill="white"/>
<path d="M408.454 460C401.618 460 396.076 454.457 396.076 447.618V437.488C396.076 430.65 401.618 425.106 408.454 425.106C415.289 425.106 420.831 430.65 420.831 437.488V447.618C420.831 454.457 415.289 460 408.454 460Z" fill="#2BCFB2"/>
<path d="M408.953 443.836L406.95 443.431C404.632 442.958 402.427 441.653 402.427 438.906C402.427 435.822 405.622 434.381 408.39 434.381C411.406 434.381 413.949 435.754 414.602 439.041H412.126C411.586 437.128 409.831 436.52 408.278 436.52C407.085 436.52 405.037 437.083 405.037 438.793C405.037 440.144 406.095 440.842 407.513 441.135L409.448 441.54C412.059 442.08 414.917 443.048 414.917 446.358C414.917 449.599 411.789 451.288 408.638 451.288C404.88 451.288 402.292 449.194 401.932 445.772H404.452C404.925 448.023 406.41 449.149 408.728 449.149C410.866 449.149 412.329 448.159 412.329 446.56C412.329 444.872 410.686 444.196 408.953 443.836Z" fill="white"/>
<path d="M755.018 274.274C748.182 274.274 742.641 268.731 742.641 261.892V251.762C742.641 244.924 748.182 239.38 755.018 239.38C761.854 239.38 767.395 244.924 767.395 251.762V261.892C767.395 268.731 761.854 274.274 755.018 274.274Z" fill="#2BCFB2"/>
<path d="M755.517 258.11L753.515 257.705C751.197 257.232 748.991 255.927 748.991 253.18C748.991 250.096 752.187 248.655 754.955 248.655C757.97 248.655 760.513 250.028 761.166 253.315H758.691C758.15 251.402 756.395 250.794 754.842 250.794C753.65 250.794 751.602 251.357 751.602 253.067C751.602 254.418 752.659 255.116 754.077 255.409L756.013 255.814C758.623 256.354 761.481 257.322 761.481 260.632C761.481 263.873 758.353 265.562 755.202 265.562C751.444 265.562 748.856 263.468 748.496 260.046H751.017C751.489 262.298 752.974 263.423 755.292 263.423C757.43 263.423 758.893 262.433 758.893 260.834C758.893 259.146 757.25 258.47 755.517 258.11Z" fill="white"/>
<path d="M1101.58 326.896C1094.75 326.896 1089.21 321.353 1089.21 314.515V304.384C1089.21 297.546 1094.75 292.002 1101.58 292.002C1108.42 292.002 1113.96 297.546 1113.96 304.384V314.515C1113.96 321.353 1108.42 326.896 1101.58 326.896Z" fill="#2BCFB2"/>
<path d="M1102.08 310.733L1100.08 310.327C1097.76 309.855 1095.56 308.549 1095.56 305.802C1095.56 302.718 1098.75 301.277 1101.52 301.277C1104.54 301.277 1107.08 302.651 1107.73 305.937H1105.26C1104.72 304.024 1102.96 303.416 1101.41 303.416C1100.22 303.416 1098.17 303.979 1098.17 305.69C1098.17 307.041 1099.23 307.738 1100.64 308.031L1102.58 308.436C1105.19 308.977 1108.05 309.945 1108.05 313.254C1108.05 316.496 1104.92 318.184 1101.77 318.184C1098.01 318.184 1095.42 316.091 1095.06 312.669H1097.58C1098.06 314.92 1099.54 316.045 1101.86 316.045C1104 316.045 1105.46 315.055 1105.46 313.457C1105.46 311.768 1103.82 311.093 1102.08 310.733Z" fill="white"/>
</svg>
